<?xml version="1.0" encoding="UTF-8" standalone="no"?>
<!-- Created with Inkscape (http://www.inkscape.org/) -->

<svg
   xmlns:dc="http://purl.org/dc/elements/1.1/"
   xmlns:cc="http://creativecommons.org/ns#"
   xmlns:rdf="http://www.w3.org/1999/02/22-rdf-syntax-ns#"
   xmlns:svg="http://www.w3.org/2000/svg"
   xmlns="http://www.w3.org/2000/svg"
   xmlns:sodipodi="http://sodipodi.sourceforge.net/DTD/sodipodi-0.dtd"
   xmlns:inkscape="http://www.inkscape.org/namespaces/inkscape"
   width="361.81021mm"
   height="189.0751mm"
   viewBox="0 0 361.81021 189.0751"
   version="1.1"
   id="svg8"
   inkscape:version="0.92.5 (2060ec1f9f, 2020-04-08)"
   sodipodi:docname="dash_plugin.svg">
  <defs
     id="defs2">
    <marker
       inkscape:isstock="true"
       style="overflow:visible"
       id="marker1589"
       refX="0"
       refY="0"
       orient="auto"
       inkscape:stockid="Arrow1Lend">
      <path
         inkscape:connector-curvature="0"
         transform="matrix(-0.8,0,0,-0.8,-10,0)"
         style="fill:#000000;fill-opacity:1;fill-rule:evenodd;stroke:#000000;stroke-width:1.00000003pt;stroke-opacity:1"
         d="M 0,0 5,-5 -12.5,0 5,5 Z"
         id="path1587" />
    </marker>
    <marker
       inkscape:stockid="Arrow1Lend"
       orient="auto"
       refY="0"
       refX="0"
       id="Arrow1Lend"
       style="overflow:visible"
       inkscape:isstock="true"
       inkscape:collect="always">
      <path
         id="path844"
         d="M 0,0 5,-5 -12.5,0 5,5 Z"
         style="fill:#000000;fill-opacity:1;fill-rule:evenodd;stroke:#000000;stroke-width:1.00000003pt;stroke-opacity:1"
         transform="matrix(-0.8,0,0,-0.8,-10,0)"
         inkscape:connector-curvature="0" />
    </marker>
    <marker
       inkscape:stockid="Arrow1Lend"
       orient="auto"
       refY="0"
       refX="0"
       id="Arrow1Lend-3"
       style="overflow:visible"
       inkscape:isstock="true"
       inkscape:collect="always">
      <path
         id="path844-6"
         d="M 0,0 5,-5 -12.5,0 5,5 Z"
         style="fill:#000000;fill-opacity:1;fill-rule:evenodd;stroke:#000000;stroke-width:1.00000003pt;stroke-opacity:1"
         transform="matrix(-0.8,0,0,-0.8,-10,0)"
         inkscape:connector-curvature="0" />
    </marker>
    <marker
       inkscape:stockid="Arrow1Lend"
       orient="auto"
       refY="0"
       refX="0"
       id="Arrow1Lend-6"
       style="overflow:visible"
       inkscape:isstock="true"
       inkscape:collect="always">
      <path
         id="path844-2"
         d="M 0,0 5,-5 -12.5,0 5,5 Z"
         style="fill:#000000;fill-opacity:1;fill-rule:evenodd;stroke:#000000;stroke-width:1.00000003pt;stroke-opacity:1"
         transform="matrix(-0.8,0,0,-0.8,-10,0)"
         inkscape:connector-curvature="0" />
    </marker>
  </defs>
  <sodipodi:namedview
     id="base"
     pagecolor="#ffffff"
     bordercolor="#666666"
     borderopacity="1.0"
     inkscape:pageopacity="0.0"
     inkscape:pageshadow="2"
     inkscape:zoom="0.7"
     inkscape:cx="788.07983"
     inkscape:cy="298.06536"
     inkscape:document-units="mm"
     inkscape:current-layer="layer1"
     showgrid="false"
     inkscape:window-width="1858"
     inkscape:window-height="1016"
     inkscape:window-x="62"
     inkscape:window-y="27"
     inkscape:window-maximized="1" />
  <metadata
     id="metadata5">
    <rdf:RDF>
      <cc:Work
         rdf:about="">
        <dc:format>image/svg+xml</dc:format>
        <dc:type
           rdf:resource="http://purl.org/dc/dcmitype/StillImage" />
        <dc:title></dc:title>
      </cc:Work>
    </rdf:RDF>
  </metadata>
  <g
     inkscape:label="Layer 1"
     inkscape:groupmode="layer"
     id="layer1"
     transform="translate(36.518213,19.598572)">
    <rect
       style="opacity:0.55100002;fill:#a75900;fill-opacity:1;stroke-width:0.26458332"
       id="rect815"
       width="45.357143"
       height="25.702381"
       x="9.4494047"
       y="31.660713" />
    <text
       xml:space="preserve"
       style="font-style:normal;font-variant:normal;font-weight:normal;font-stretch:normal;font-size:10.58333302px;line-height:1.25;font-family:Manjari;-inkscape-font-specification:'Manjari, Normal';font-variant-ligatures:normal;font-variant-caps:normal;font-variant-numeric:normal;font-feature-settings:normal;text-align:start;letter-spacing:0px;word-spacing:0px;writing-mode:lr-tb;text-anchor:start;fill:#000000;fill-opacity:1;stroke:none;stroke-width:0.26458332"
       x="17.386904"
       y="43.755951"
       id="text819"><tspan
         sodipodi:role="line"
         id="tspan817"
         x="17.386904"
         y="43.755951"
         style="stroke-width:0.26458332">batch</tspan></text>
    <text
       xml:space="preserve"
       style="font-style:normal;font-variant:normal;font-weight:normal;font-stretch:normal;font-size:10.58333302px;line-height:1.25;font-family:Manjari;-inkscape-font-specification:'Manjari, Normal';font-variant-ligatures:normal;font-variant-caps:normal;font-variant-numeric:normal;font-feature-settings:normal;text-align:start;letter-spacing:0px;word-spacing:0px;writing-mode:lr-tb;text-anchor:start;fill:#000000;fill-opacity:1;stroke:none;stroke-width:0.26458332"
       x="17.186106"
       y="54.083855"
       id="text819-3"><tspan
         sodipodi:role="line"
         id="tspan817-6"
         x="17.186106"
         y="54.083855"
         style="stroke-width:0.26458332">daily</tspan></text>
    <path
       style="fill:none;stroke:#000000;stroke-width:0.38697156;stroke-linecap:butt;stroke-linejoin:miter;stroke-miterlimit:4;stroke-dasharray:none;stroke-opacity:1;marker-end:url(#Arrow1Lend)"
       d="M 60.854166,46.02381 H 124.52755"
       id="path839"
       inkscape:connector-curvature="0"
       sodipodi:nodetypes="cc" />
    <text
       xml:space="preserve"
       style="font-style:normal;font-variant:normal;font-weight:normal;font-stretch:normal;font-size:10.58333302px;line-height:1.25;font-family:Manjari;-inkscape-font-specification:'Manjari, Normal';font-variant-ligatures:normal;font-variant-caps:normal;font-variant-numeric:normal;font-feature-settings:normal;text-align:start;letter-spacing:0px;word-spacing:0px;writing-mode:lr-tb;text-anchor:start;fill:#000000;fill-opacity:1;stroke:none;stroke-width:0.26458332"
       x="82.701195"
       y="38.464287"
       id="text1221"><tspan
         sodipodi:role="line"
         id="tspan1219"
         x="82.701195"
         y="38.464287"
         style="font-size:22.57777786px;stroke-width:0.26458332">{}</tspan></text>
    <rect
       style="opacity:0.55100002;fill:none;fill-opacity:1;stroke:#8b0000;stroke-width:0.51998532;stroke-miterlimit:4;stroke-dasharray:none;stroke-opacity:1"
       id="rect1391"
       width="106.91228"
       height="63.067036"
       x="-23.785007"
       y="14.679277" />
    <text
       xml:space="preserve"
       style="font-style:normal;font-variant:normal;font-weight:normal;font-stretch:normal;font-size:10.58333302px;line-height:1.25;font-family:Manjari;-inkscape-font-specification:'Manjari, Normal';font-variant-ligatures:normal;font-variant-caps:normal;font-variant-numeric:normal;font-feature-settings:normal;text-align:start;letter-spacing:0px;word-spacing:0px;writing-mode:lr-tb;text-anchor:start;fill:#000000;fill-opacity:1;stroke:#a65900;stroke-width:0.26458332;stroke-opacity:0.55294118"
       x="-19.579163"
       y="70.365463"
       id="text1395"><tspan
         sodipodi:role="line"
         id="tspan1393"
         x="-19.579163"
         y="70.365463"
         style="stroke:#a65900;stroke-width:0.26458332;stroke-opacity:0.55294118">account environment</tspan></text>
    <rect
       style="opacity:0.55100002;fill:none;fill-opacity:1;stroke:#426100;stroke-width:0.51998532;stroke-miterlimit:4;stroke-dasharray:none;stroke-opacity:1"
       id="rect1391-7"
       width="106.91228"
       height="63.067036"
       x="96.751633"
       y="14.490274" />
    <text
       xml:space="preserve"
       style="font-style:normal;font-variant:normal;font-weight:normal;font-stretch:normal;font-size:10.58333302px;line-height:1.25;font-family:Manjari;-inkscape-font-specification:'Manjari, Normal';font-variant-ligatures:normal;font-variant-caps:normal;font-variant-numeric:normal;font-feature-settings:normal;text-align:start;letter-spacing:0px;word-spacing:0px;writing-mode:lr-tb;text-anchor:start;fill:#000000;fill-opacity:1;stroke:#426100;stroke-width:0.26458332;stroke-opacity:1"
       x="99.899139"
       y="70.17646"
       id="text1395-5"><tspan
         sodipodi:role="line"
         id="tspan1393-3"
         x="99.899139"
         y="70.17646"
         style="stroke:#426100;stroke-width:0.26458332;stroke-opacity:1">internal environment</tspan></text>
    <text
       xml:space="preserve"
       style="font-style:normal;font-variant:normal;font-weight:normal;font-stretch:normal;font-size:10.58333302px;line-height:1.25;font-family:Manjari;-inkscape-font-specification:'Manjari, Normal';font-variant-ligatures:normal;font-variant-caps:normal;font-variant-numeric:normal;font-feature-settings:normal;text-align:start;letter-spacing:0px;word-spacing:0px;writing-mode:lr-tb;text-anchor:start;fill:#000000;fill-opacity:1;stroke:none;stroke-width:0.26458332"
       x="-17.008928"
       y="28.258926"
       id="text1420"><tspan
         sodipodi:role="line"
         id="tspan1418"
         x="-17.008928"
         y="28.258926"
         style="stroke-width:0.26458332">airflow/cron</tspan></text>
    <text
       xml:space="preserve"
       style="font-style:normal;font-variant:normal;font-weight:normal;font-stretch:normal;font-size:10.58333302px;line-height:1.25;font-family:Manjari;-inkscape-font-specification:'Manjari, Normal';font-variant-ligatures:normal;font-variant-caps:normal;font-variant-numeric:normal;font-feature-settings:normal;text-align:start;letter-spacing:0px;word-spacing:0px;writing-mode:lr-tb;text-anchor:start;fill:#000000;fill-opacity:1;stroke:none;stroke-width:0.26458332"
       x="129.32654"
       y="47.691727"
       id="text1420-5"><tspan
         sodipodi:role="line"
         id="tspan1418-6"
         x="129.32654"
         y="47.691727"
         style="stroke-width:0.26458332">web service</tspan></text>
    <rect
       style="opacity:0.55100002;fill:#416200;fill-opacity:0.55294118;stroke-width:0.33204943"
       id="rect815-2"
       width="71.4375"
       height="25.702381"
       x="118.68452"
       y="32.794643" />
    <text
       xml:space="preserve"
       style="font-style:normal;font-variant:normal;font-weight:normal;font-stretch:normal;font-size:10.58333302px;line-height:1.25;font-family:Manjari;-inkscape-font-specification:'Manjari, Normal';font-variant-ligatures:normal;font-variant-caps:normal;font-variant-numeric:normal;font-feature-settings:normal;text-align:start;letter-spacing:0px;word-spacing:0px;writing-mode:lr-tb;text-anchor:start;fill:#000000;fill-opacity:1;stroke:none;stroke-width:0.26458332"
       x="79.05571"
       y="54.873276"
       id="text1420-2"><tspan
         sodipodi:role="line"
         id="tspan1418-7"
         x="79.05571"
         y="54.873276"
         style="stroke-width:0.26458332">post</tspan></text>
    <text
       xml:space="preserve"
       style="font-style:normal;font-variant:normal;font-weight:normal;font-stretch:normal;font-size:10.58333302px;line-height:1.25;font-family:Manjari;-inkscape-font-specification:'Manjari, Normal';font-variant-ligatures:normal;font-variant-caps:normal;font-variant-numeric:normal;font-feature-settings:normal;text-align:start;letter-spacing:0px;word-spacing:0px;writing-mode:lr-tb;text-anchor:start;fill:#000000;fill-opacity:1;stroke:none;stroke-width:0.26458332"
       x="233.13559"
       y="21.455357"
       id="text1497"><tspan
         sodipodi:role="line"
         id="tspan1495"
         x="233.13559"
         y="21.455357"
         style="stroke-width:0.26458332">sql</tspan></text>
    <text
       xml:space="preserve"
       style="font-style:normal;font-variant:normal;font-weight:normal;font-stretch:normal;font-size:10.58333302px;line-height:1.25;font-family:Manjari;-inkscape-font-specification:'Manjari, Normal';font-variant-ligatures:normal;font-variant-caps:normal;font-variant-numeric:normal;font-feature-settings:normal;text-align:start;letter-spacing:0px;word-spacing:0px;writing-mode:lr-tb;text-anchor:start;fill:#000000;fill-opacity:1;stroke:none;stroke-width:0.26458332"
       x="276.37634"
       y="20.85059"
       id="text1501"><tspan
         sodipodi:role="line"
         id="tspan1499"
         x="276.37634"
         y="20.85059"
         style="stroke-width:0.26458332">json</tspan></text>
    <g
       id="g1575"
       transform="translate(-28.80178,34.925012)">
      <rect
         y="14.273809"
         x="256.64584"
         height="18.898809"
         width="8.3154764"
         id="rect1503"
         style="opacity:0.55100002;fill:#416200;fill-opacity:0.55294118;stroke:#a65900;stroke-width:0.46499997;stroke-miterlimit:4;stroke-dasharray:none;stroke-opacity:0.55294118" />
      <rect
         y="2.0632114"
         x="267.07803"
         height="31.109406"
         width="8.3154764"
         id="rect1503-0"
         style="opacity:0.55100002;fill:#416200;fill-opacity:0.55294118;stroke:#a65900;stroke-width:0.59659767;stroke-miterlimit:4;stroke-dasharray:none;stroke-opacity:0.55294118" />
      <rect
         y="24.11162"
         x="277.51022"
         height="9.060998"
         width="8.3154764"
         id="rect1503-0-9"
         style="opacity:0.55100002;fill:#416200;fill-opacity:0.55294118;stroke:#a65900;stroke-width:0.32197616;stroke-miterlimit:4;stroke-dasharray:none;stroke-opacity:0.55294118" />
    </g>
    <path
       style="opacity:0.57999998;fill:#0000a4;fill-opacity:1;stroke-width:0.18628354"
       d="m 284.65,68.592448 c -7.12728,-1.122552 -12.90437,-6.396532 -14.85751,-13.563612 -0.55804,-2.047741 -0.55804,-6.575849 0,-8.62359 1.79779,-6.597063 6.64251,-11.441782 13.23957,-13.239574 2.04775,-0.558041 6.57585,-0.558041 8.62359,0 6.59707,1.797792 11.44178,6.642511 13.23958,13.239574 0.55803,2.047741 0.55803,6.575849 0,8.62359 -1.79886,6.600964 -6.74169,11.536683 -13.23958,13.220515 -1.65545,0.428986 -5.32063,0.608487 -7.00565,0.343097 z M 278.79374,58.7738 c 0.50167,-0.281752 0.9122,-0.58621 0.91231,-0.676577 2.1e-4,-0.182246 -0.73536,-1.41911 -0.84396,-1.41911 -0.0377,0 -0.55482,0.293545 -1.14907,0.652329 -1.00323,0.605692 -1.09755,0.629186 -1.3194,0.328643 -0.46946,-0.63596 -1.00877,-2.778257 -1.11012,-4.409735 l -0.10306,-1.659069 0.8192,0.11931 c 0.45055,0.06562 1.12131,0.171517 1.49056,0.235326 l 0.67136,0.116023 0.10839,-0.808096 c 0.0596,-0.444454 0.0825,-0.833978 0.0508,-0.865618 -0.0316,-0.03161 -0.634,-0.165941 -1.33859,-0.29846 l -1.28108,-0.240945 0.0484,-0.598017 c 0.0266,-0.328911 0.28696,-1.118307 0.57859,-1.754224 0.52959,-1.154841 2.13482,-3.485369 2.39976,-3.484053 0.077,3.95e-4 0.54634,0.50335 1.04285,1.117702 0.49652,0.614352 0.96284,1.117004 1.03628,1.117004 0.0734,0 0.37126,-0.248147 0.66184,-0.551444 l 0.52832,-0.551444 -0.483,-0.612824 c -0.26564,-0.337056 -0.69318,-0.872279 -0.95007,-1.189375 l -0.46709,-0.576551 1.15517,-0.6858 c 1.22295,-0.72603 2.85134,-1.303405 4.28045,-1.517715 l 0.86411,-0.129583 0.0544,1.556812 0.0544,1.556819 h 0.83827 0.83828 l 0.0541,-1.536845 c 0.0629,-1.785435 -0.0355,-1.731222 2.13364,-1.176462 1.46482,0.374639 2.89345,1.014232 3.66999,1.643024 0.5083,0.411596 0.58631,0.220576 -0.81265,1.990036 l -0.54343,0.687342 0.60029,0.593575 0.60029,0.593582 0.40884,-0.470335 c 0.22486,-0.258687 0.68507,-0.803562 1.02267,-1.210842 l 0.61382,-0.740513 0.55255,0.651991 c 1.30144,1.535662 2.88548,4.845444 2.48601,5.194399 -0.0924,0.08069 -0.7028,0.241241 -1.35649,0.356763 -0.65369,0.115523 -1.2223,0.243818 -1.26359,0.285111 -0.0413,0.04126 -0.0182,0.430563 0.0513,0.865062 0.12608,0.788467 0.12762,0.789769 0.79788,0.673937 0.36936,-0.06386 1.02783,-0.168046 1.46326,-0.231595 l 0.7917,-0.115544 v 1.206364 c 0,1.279143 -0.52616,3.655273 -1.02153,4.613209 l -0.29719,0.574706 -1.18482,-0.662588 -1.18482,-0.662594 -0.39123,0.63301 c -0.21517,0.348159 -0.39113,0.706943 -0.39103,0.797302 1.1e-4,0.09037 0.41724,0.398536 0.92698,0.684829 0.8175,0.459148 1.08658,0.514065 2.28179,0.46571 l 1.35499,-0.05485 0.59639,-1.490271 c 0.78672,-1.965873 1.0536,-3.656386 0.93935,-5.950099 -0.17806,-3.575003 -1.39256,-6.202766 -4.14559,-8.969645 -1.36834,-1.375226 -1.98182,-1.839451 -3.26331,-2.469349 -4.16828,-2.048853 -8.48469,-2.048452 -12.66205,0.0014 -1.30653,0.64105 -1.89405,1.089144 -3.35981,2.562489 -2.05087,2.061491 -3.08012,3.855875 -3.74617,6.531113 -0.69729,2.800667 -0.28001,6.695625 0.9834,9.179168 l 0.35536,0.698564 h 1.31932 c 1.09394,0 1.47512,-0.08751 2.23142,-0.512283 z m 14.13862,-0.884846 v -1.397123 h -5.5885 -5.58851 v 1.397123 1.39713 h 5.58851 5.5885 z m -4.34527,-5.010265 c 0.45504,-0.391403 0.49612,-0.511024 0.33393,-0.972227 -0.10173,-0.289244 -0.43207,-0.654238 -0.73409,-0.811096 -0.30203,-0.156851 -1.5929,-1.060954 -2.8686,-2.009123 -1.2757,-0.94817 -2.35455,-1.688838 -2.39746,-1.645939 -0.0429,0.04288 0.60502,0.902504 1.43982,1.910223 0.8348,1.00772 1.80541,2.265262 2.15691,2.794542 0.87584,1.318817 1.23935,1.447681 2.06949,0.73362 z"
       id="path1546"
       inkscape:connector-curvature="0" />
    <path
       style="opacity:0.52899996;fill:#005000;fill-opacity:1;stroke-width:0.13783684"
       d="m 250.29483,161.68713 c -0.0505,-0.0505 -0.0919,-0.50243 -0.0919,-1.0042 v -0.91231 l 1.08238,-0.14491 c 3.48913,-0.46715 5.53131,-3.09625 5.37432,-6.91888 -0.0762,-1.85473 1.02626,-1.67908 -10.53816,-1.67908 -9.56218,0 -9.84763,-0.008 -10.10804,-0.26799 -0.1474,-0.14739 -0.30481,-0.47303 -0.3498,-0.72364 -0.045,-0.25061 -0.064,-7.93887 -0.0421,-17.08501 0.0384,-16.12966 0.0476,-16.63806 0.30224,-16.91947 l 0.26258,-0.29013 h 24.49223 24.49222 l 0.26258,0.29013 c 0.25473,0.28146 0.26373,0.79112 0.30093,17.05731 0.0211,9.22195 0.004,16.90832 -0.038,17.08082 -0.042,0.17251 -0.19879,0.43612 -0.34848,0.58581 -0.26592,0.26592 -0.49821,0.27217 -10.11223,0.27217 -11.49549,0 -10.44991,-0.15376 -10.53591,1.54938 -0.19635,3.88829 1.85318,6.57744 5.37207,7.04858 l 1.08238,0.14491 v 1.0042 1.0042 h -10.38371 c -5.71104,0 -10.42506,-0.0414 -10.4756,-0.0919 z m 33.3686,-28.21874 c 0.0256,-11.28242 -0.007,-15.47312 -0.12026,-15.61002 -0.21586,-0.2601 -45.4581,-0.28161 -45.71798,-0.0217 -0.12667,0.12667 -0.1654,3.76856 -0.1654,15.55259 0,8.46295 0.0415,15.42872 0.0923,15.47948 0.0507,0.0507 10.3937,0.0766 22.9843,0.0574 l 22.89199,-0.0348 z m -39.86006,9.34822 c -0.11913,-0.11913 -0.2166,-0.30078 -0.2166,-0.40367 0,-0.10288 0.0975,-0.28453 0.2166,-0.40366 0.18948,-0.18948 0.88729,-0.2166 5.57255,-0.2166 4.68526,0 5.38307,0.0271 5.57255,0.2166 0.11913,0.11913 0.21659,0.30078 0.21659,0.40366 0,0.10289 -0.0975,0.28454 -0.21659,0.40367 -0.18948,0.18948 -0.88729,0.2166 -5.57255,0.2166 -4.68526,0 -5.38307,-0.0271 -5.57255,-0.2166 z m 17.56435,-5.91714 v -4.20402 h 1.1027 1.1027 v 4.20402 4.20402 h -1.1027 -1.1027 z m 4.96213,-1.65404 v -5.85807 h 1.10269 1.1027 v 5.85807 5.85806 h -1.1027 -1.10269 z m 4.96212,2.89457 v -2.97464 l 1.13716,0.0401 1.13715,0.04 v 2.89457 2.89457 l -1.13715,0.0401 -1.13716,0.0401 z m 5.09997,-2.20539 v -5.16888 h 1.10269 1.1027 v 5.16888 5.16888 h -1.1027 -1.10269 z m -32.49883,4.5408 c -0.33704,-0.23608 -0.39732,-0.60416 -0.14094,-0.86055 0.23759,-0.23759 11.00991,-0.23759 11.24749,0 0.25639,0.25639 0.19611,0.62447 -0.14094,0.86055 -0.46054,0.32258 -10.50506,0.32258 -10.96561,0 z m 3.69093,-4.14006 c -1.27602,-0.33897 -2.22263,-0.89582 -3.25419,-1.91433 -1.48987,-1.47102 -2.16745,-3.06348 -2.1711,-5.10258 -0.006,-3.33275 2.32222,-6.257 5.59617,-7.02891 0.47459,-0.11189 0.90942,-0.20436 0.96627,-0.20548 0.0569,-0.001 0.10338,1.69836 0.10338,3.77663 v 3.77867 l 3.17183,1.81944 c 1.74451,1.0007 3.20948,1.88037 3.25549,1.95481 0.13608,0.22018 -1.74601,1.9386 -2.56789,2.34457 -1.58194,0.78141 -3.5098,0.9996 -5.09996,0.57718 z m 5.27465,-5.60702 -2.92663,-1.68556 -0.003,-3.48038 c -0.002,-1.91421 0.0441,-3.47946 0.10097,-3.47834 0.0569,10e-4 0.49168,0.0936 0.96628,0.20548 4.06714,0.95893 6.505,5.16472 5.29269,9.13093 -0.168,0.54962 -0.35019,0.99799 -0.40487,0.99637 -0.0547,-0.002 -1.41639,-0.76144 -3.02604,-1.6885 z m 18.91572,1.16192 c -0.54843,-0.33531 -0.58362,-0.38194 -2.12315,-2.81333 -1.44543,-2.28279 -1.78718,-2.60139 -2.4818,-2.31367 -0.30357,0.12574 -2.12872,2.17256 -3.47699,3.89929 l -0.22524,0.28846 -0.42186,-0.33385 c -0.23203,-0.18362 -0.4253,-0.37885 -0.42949,-0.43385 -0.017,-0.22288 3.46341,-4.24776 3.84277,-4.44394 0.479,-0.2477 1.55156,-0.2782 1.98227,-0.0564 0.59019,0.30397 0.96051,0.76802 2.31349,2.89906 1.41465,2.22817 1.66913,2.47363 2.43762,2.35124 0.22152,-0.0353 0.85761,-0.77283 2.1445,-2.48654 2.23721,-2.97925 2.10435,-2.75803 1.79307,-2.98564 -0.3137,-0.22939 -0.30747,-0.23416 0.70963,-0.54385 0.45486,-0.1385 0.90455,-0.28148 0.99931,-0.31774 0.12909,-0.0494 0.1723,0.21428 0.1723,1.0515 0,0.61459 -0.0416,1.11744 -0.0925,1.11744 -0.0509,0 -0.19277,-0.0907 -0.3153,-0.2016 -0.20079,-0.18171 -0.41645,0.0567 -2.18598,2.41672 -1.10289,1.47093 -2.15768,2.7369 -2.40698,2.88891 -0.57838,0.35265 -1.67368,0.36135 -2.23565,0.0178 z"
       id="path1570"
       inkscape:connector-curvature="0" />
    <path
       style="fill:none;stroke:#000000;stroke-width:0.38697156;stroke-linecap:butt;stroke-linejoin:miter;stroke-miterlimit:4;stroke-dasharray:none;stroke-opacity:1;marker-end:url(#Arrow1Lend-3)"
       d="m 241.9659,76.494389 17.93826,33.639881"
       id="path839-0"
       inkscape:connector-curvature="0"
       sodipodi:nodetypes="cc" />
    <path
       style="fill:none;stroke:#000000;stroke-width:0.38697156;stroke-linecap:butt;stroke-linejoin:miter;stroke-miterlimit:4;stroke-dasharray:none;stroke-opacity:1;marker-end:url(#Arrow1Lend-6)"
       d="M 280.51947,77.325936 259.90416,110.13427"
       id="path839-6"
       inkscape:connector-curvature="0"
       sodipodi:nodetypes="cc" />
    <text
       xml:space="preserve"
       style="font-style:normal;font-variant:normal;font-weight:normal;font-stretch:normal;font-size:10.58333302px;line-height:1.25;font-family:Manjari;-inkscape-font-specification:'Manjari, Normal';font-variant-ligatures:normal;font-variant-caps:normal;font-variant-numeric:normal;font-feature-settings:normal;text-align:start;letter-spacing:0px;word-spacing:0px;writing-mode:lr-tb;text-anchor:start;fill:#000000;fill-opacity:1;stroke:none;stroke-width:0.26458332"
       x="224.80913"
       y="99.561935"
       id="text1497-1"><tspan
         sodipodi:role="line"
         id="tspan1495-8"
         x="224.80913"
         y="99.561935"
         style="stroke-width:0.26458332">php</tspan></text>
    <text
       xml:space="preserve"
       style="font-style:normal;font-variant:normal;font-weight:normal;font-stretch:normal;font-size:10.58333302px;line-height:1.25;font-family:Manjari;-inkscape-font-specification:'Manjari, Normal';font-variant-ligatures:normal;font-variant-caps:normal;font-variant-numeric:normal;font-feature-settings:normal;text-align:start;letter-spacing:0px;word-spacing:0px;writing-mode:lr-tb;text-anchor:start;fill:#000000;fill-opacity:1;stroke:none;stroke-width:0.26458332"
       x="276.2139"
       y="98.352409"
       id="text1497-7"><tspan
         sodipodi:role="line"
         id="tspan1495-9"
         x="276.2139"
         y="98.352409"
         style="stroke-width:0.26458332">ajax</tspan></text>
  </g>
</svg>
