<?xml version="1.0" encoding="UTF-8" standalone="no"?>
<!-- Created with Inkscape (http://www.inkscape.org/) -->

<svg
   xmlns:dc="http://purl.org/dc/elements/1.1/"
   xmlns:cc="http://creativecommons.org/ns#"
   xmlns:rdf="http://www.w3.org/1999/02/22-rdf-syntax-ns#"
   xmlns:svg="http://www.w3.org/2000/svg"
   xmlns="http://www.w3.org/2000/svg"
   xmlns:sodipodi="http://sodipodi.sourceforge.net/DTD/sodipodi-0.dtd"
   xmlns:inkscape="http://www.inkscape.org/namespaces/inkscape"
   width="37.150467mm"
   height="37.150467mm"
   viewBox="0 0 37.150467 37.150467"
   version="1.1"
   id="svg8"
   inkscape:version="0.92.5 (2060ec1f9f, 2020-04-08)"
   sodipodi:docname="USER.svg">
  <defs
     id="defs2" />
  <sodipodi:namedview
     id="base"
     pagecolor="#ffffff"
     bordercolor="#666666"
     borderopacity="1.0"
     inkscape:pageopacity="0.0"
     inkscape:pageshadow="2"
     inkscape:zoom="0.98994949"
     inkscape:cx="34.885916"
     inkscape:cy="-33.85039"
     inkscape:document-units="mm"
     inkscape:current-layer="layer1"
     showgrid="false"
     inkscape:window-width="1858"
     inkscape:window-height="1016"
     inkscape:window-x="62"
     inkscape:window-y="27"
     inkscape:window-maximized="1" />
  <metadata
     id="metadata5">
    <rdf:RDF>
      <cc:Work
         rdf:about="">
        <dc:format>image/svg+xml</dc:format>
        <dc:type
           rdf:resource="http://purl.org/dc/dcmitype/StillImage" />
        <dc:title></dc:title>
      </cc:Work>
    </rdf:RDF>
  </metadata>
  <g
     inkscape:label="Layer 1"
     inkscape:groupmode="layer"
     id="layer1"
     transform="translate(-57.195675,-52.44838)">
    <path
       style="fill:#000000;stroke-width:0.11955441"
       d="m 66.292045,83.812711 c -0.260284,-0.147424 -0.636882,-0.500728 -0.836879,-0.785119 -0.331674,-0.471628 -0.367267,-0.615759 -0.404965,-1.639848 -0.12432,-3.377648 1.732843,-6.955852 4.725426,-9.104488 0.707918,-0.508277 2.193401,-1.269314 2.877719,-1.474303 0.279457,-0.08371 0.508107,-0.1931 0.508107,-0.243084 0,-0.04998 -0.179506,-0.201819 -0.398897,-0.337411 -0.641834,-0.396676 -1.5812,-1.469444 -1.982058,-2.263535 -1.8442,-3.653339 -0.0141,-7.863018 3.926973,-9.032993 0.845957,-0.251138 2.51794,-0.251138 3.363902,0 2.25217,0.668597 3.957109,2.423181 4.470345,4.600529 0.347805,1.475512 0.161363,3.036387 -0.525115,4.396299 -0.398242,0.788907 -1.371494,1.911065 -1.987862,2.292003 -0.226241,0.139826 -0.41135,0.295125 -0.41135,0.345108 0,0.04998 0.228645,0.159341 0.508107,0.243017 0.635526,0.190289 2.010418,0.876884 2.719864,1.358249 0.793885,0.53866 2.222705,1.949767 2.82441,2.789395 0.656474,0.916058 1.498921,2.70438 1.793876,3.807989 0.160392,0.600137 0.223666,1.24827 0.223666,2.291124 0,1.427138 -0.0068,1.463887 -0.363634,1.971633 -0.200002,0.284564 -0.576599,0.638011 -0.836884,0.785435 l -0.473245,0.268046 h -9.624129 -9.624131 z"
       id="path826"
       inkscape:connector-curvature="0" />
  </g>
</svg>
